<svg width="555" height="555" viewBox="0 0 555 555" fill="none" xmlns="http://www.w3.org/2000/svg">
<rect width="555" height="555" rx="24" fill="white"/>
<path d="M284.739 356.946V525.929C284.739 530.084 281.172 533.5 276.706 533.5C272.238 533.5 268.673 530.084 268.673 525.929V356.946H284.739Z" fill="#00BF63" stroke="#00BF63"/>
<path d="M48.7611 133.792C91.9414 157.417 134.752 193.481 171.766 240.359C208.799 287.263 234.815 338.394 249.245 387.773C206.065 364.149 163.253 328.086 126.24 281.207C89.2072 234.303 63.1902 183.172 48.7611 133.792Z" fill="#00BF63" stroke="#00BF63" stroke-width="1.5625"/>
<path d="M50.4828 134.741C93.0784 158.378 135.244 194.103 171.766 240.359C208.284 286.611 234.089 336.971 248.635 385.711L50.4828 134.741Z" fill="#8CE16E" stroke="#00BF63" stroke-width="1.5625"/>
<path d="M276.995 23.9785C298.784 74.8624 311.523 135.671 311.523 201.085C311.523 266.499 298.784 327.306 276.995 378.189C255.207 327.306 242.467 266.499 242.467 201.085C242.467 135.67 255.206 74.8625 276.995 23.9785Z" fill="#00BF63" stroke="#00BF63" stroke-width="1.5625"/>
<path d="M277.779 25.8174C299.091 76.3248 311.526 136.457 311.526 201.085C311.526 265.713 299.091 325.844 277.779 376.351V25.8174Z" fill="#8CE16E" stroke="#00BF63" stroke-width="1.5625"/>
<path d="M505.245 133.794C490.815 183.174 464.799 234.305 427.766 281.209C390.753 328.088 347.941 364.15 304.76 387.775C319.19 338.395 345.207 287.264 382.24 240.361C419.253 193.482 462.065 157.418 505.245 133.794Z" fill="#00BF63" stroke="#00BF63" stroke-width="1.5625"/>
<path d="M504.635 135.856C490.088 184.595 464.284 234.957 427.767 281.209C391.244 327.465 349.078 363.189 306.482 386.826L504.635 135.856Z" fill="#8CE16E" stroke="#00BF63" stroke-width="1.5625"/>
<path d="M22.9463 378.513C57.995 370.488 98.23 369.311 139.87 376.706C181.505 384.1 218.705 399.027 248.564 418.574C213.516 426.599 173.282 427.777 131.643 420.383C90.0075 412.989 52.8058 398.061 22.9463 378.513Z" fill="#00BF63" stroke="#00BF63" stroke-width="1.5625"/>
<path d="M24.9287 378.068C59.5085 370.449 99.0129 369.45 139.87 376.705C180.728 383.961 217.315 398.473 246.885 417.484L24.9287 378.068Z" fill="#8CE16E" stroke="#00BF63" stroke-width="1.5625"/>
<path d="M414.131 376.706C455.77 369.311 496.004 370.488 531.052 378.513C501.193 398.061 463.993 412.989 422.358 420.383C380.718 427.777 340.483 426.599 305.434 418.574C335.294 399.027 372.496 384.1 414.131 376.706Z" fill="#00BF63" stroke="#00BF63" stroke-width="1.5625"/>
<path d="M414.131 376.705C454.986 369.45 494.491 370.449 529.07 378.068L307.114 417.484C336.684 398.471 373.272 383.96 414.131 376.705Z" fill="#8CE16E" stroke="#00BF63" stroke-width="1.5625"/>
<path d="M184.711 465.643C205.399 456.025 227.743 452.821 249.203 455.162C238.364 472.48 222.234 487.148 201.569 496.756C180.88 506.372 158.535 509.575 137.075 507.236C147.912 489.918 164.045 475.252 184.711 465.643Z" fill="#00BF63" stroke="#00BF63" stroke-width="1.5625"/>
<path d="M184.711 465.643C204.896 456.259 226.658 452.981 247.638 455.001L137.826 506.051C148.653 489.249 164.518 475.031 184.711 465.643Z" fill="#8CE16E" stroke="#00BF63" stroke-width="1.5625"/>
<path d="M304.8 455.162C326.262 452.821 348.605 456.025 369.294 465.643C389.959 475.252 406.09 489.918 416.929 507.236C395.47 509.575 373.125 506.372 352.437 496.756C331.771 487.148 315.64 472.48 304.8 455.162Z" fill="#00BF63" stroke="#00BF63" stroke-width="1.5625"/>
<path d="M306.367 455.002C327.346 452.981 349.11 456.259 369.296 465.643C389.488 475.031 405.352 489.25 416.179 506.051L306.367 455.002Z" fill="#8CE16E" stroke="#00BF63" stroke-width="1.5625"/>
</svg>
