<svg width="28" height="28" viewBox="0 0 28 28" fill="none" xmlns="http://www.w3.org/2000/svg">
<rect width="28" height="28" rx="4" fill="white"/>
<mask id="path-2-inside-1_700_127" fill="white">
<path d="M13.5864 17.6771V25.6217C13.5864 25.8306 13.7653 26 13.9864 26C14.2075 26 14.3864 25.8306 14.3864 25.6217V17.6771H13.5864Z"/>
</mask>
<path d="M13.5864 17.6771V25.6217C13.5864 25.8306 13.7653 26 13.9864 26C14.2075 26 14.3864 25.8306 14.3864 25.6217V17.6771H13.5864Z" fill="#7DC86E"/>
<path d="M13.5864 17.6771V16.6771H12.5864V17.6771H13.5864ZM14.3864 17.6771H15.3864V16.6771H14.3864V17.6771ZM13.5864 17.6771H12.5864V25.6217H13.5864H14.5864V17.6771H13.5864ZM13.5864 25.6217H12.5864C12.5864 26.4343 13.2659 27 13.9864 27V26V25C14.2648 25 14.5864 25.2269 14.5864 25.6217H13.5864ZM13.9864 26V27C14.7069 27 15.3864 26.4344 15.3864 25.6217H14.3864H13.3864C13.3864 25.2269 13.7081 25 13.9864 25V26ZM14.3864 25.6217H15.3864V17.6771H14.3864H13.3864V25.6217H14.3864ZM14.3864 17.6771V16.6771H13.5864V17.6771V18.6771H14.3864V17.6771Z" fill="#7DC86E" mask="url(#path-2-inside-1_700_127)"/>
<path d="M6.90451 14.1731C8.66439 16.4021 10.7039 18.1109 12.7589 19.22C12.0863 16.8744 10.8559 14.4419 9.09606 12.213C7.33618 9.98409 5.2967 8.2752 3.2417 7.16614C3.91431 9.51168 5.14468 11.9442 6.90451 14.1731Z" fill="#7DC86E"/>
<path d="M3.2417 7.16614L12.7589 19.22C12.0863 16.8744 10.8559 14.4419 9.09606 12.213C7.33618 9.98404 5.2967 8.2752 3.2417 7.16614Z" fill="#8CE16E"/>
<path d="M12.3447 10.3946C12.3447 13.4992 12.9558 16.3834 13.9999 18.7893C15.0439 16.3834 15.655 13.4992 15.655 10.3946C15.655 7.29009 15.0439 4.40587 13.9999 2C12.9558 4.40587 12.3447 7.29005 12.3447 10.3946Z" fill="#7DC86E"/>
<path d="M14 2V18.7893C15.044 16.3834 15.6552 13.4992 15.6552 10.3946C15.6552 7.29009 15.044 4.40587 14 2Z" fill="#8CE16E"/>
<path d="M21.0961 14.1731C19.3362 16.4021 17.2967 18.1109 15.2417 19.22C15.9143 16.8744 17.1447 14.4419 18.9046 12.213C20.6644 9.98409 22.704 8.2752 24.759 7.16614C24.0863 9.51168 22.8559 11.9442 21.0961 14.1731Z" fill="#7DC86E"/>
<path d="M21.0962 14.1731C22.856 11.9442 24.0863 9.51163 24.759 7.16614L15.2417 19.22C17.2967 18.1109 19.3362 16.4021 21.0962 14.1731Z" fill="#8CE16E"/>
<path d="M7.18006 20.7101C9.16948 21.0634 11.0912 21.0004 12.7586 20.6057C11.3426 19.6634 9.56797 18.944 7.57855 18.5907C5.58912 18.2374 3.66739 18.3004 2 18.6951C3.416 19.6374 5.19064 20.3569 7.18006 20.7101Z" fill="#7DC86E"/>
<path d="M2 18.6951L12.7586 20.6056C11.3426 19.6634 9.56797 18.9439 7.57855 18.5906C5.58912 18.2374 3.66739 18.3005 2 18.6951Z" fill="#8CE16E"/>
<path d="M20.8202 20.7101C18.8308 21.0634 16.9091 21.0004 15.2417 20.6057C16.6577 19.6634 18.4323 18.944 20.4218 18.5907C22.4112 18.2374 24.3329 18.3004 26.0003 18.6951C24.5843 19.6374 22.8097 20.3569 20.8202 20.7101Z" fill="#7DC86E"/>
<path d="M20.4218 18.5906C18.4323 18.9439 16.6577 19.6633 15.2417 20.6056L26.0003 18.6951C24.3329 18.3005 22.4111 18.2374 20.4218 18.5906Z" fill="#8CE16E"/>
<path d="M10.4796 24.2872C11.4743 23.8248 12.2468 23.1137 12.7587 22.2744C11.7288 22.1518 10.6532 22.2999 9.6585 22.7624C8.66382 23.2248 7.89122 23.9359 7.37939 24.7751C8.40919 24.8976 9.48488 24.7495 10.4796 24.2872Z" fill="#7DC86E"/>
<path d="M9.6585 22.7624C8.66382 23.2248 7.89122 23.9359 7.37939 24.7751L12.7587 22.2744C11.7289 22.1518 10.6531 22.3 9.6585 22.7624Z" fill="#8CE16E"/>
<path d="M17.5208 24.2872C16.5261 23.8248 15.7536 23.1137 15.2417 22.2744C16.2715 22.1518 17.3472 22.2999 18.3419 22.7624C19.3366 23.2248 20.1091 23.9359 20.621 24.7751C19.5912 24.8976 18.5155 24.7495 17.5208 24.2872Z" fill="#7DC86E"/>
<path d="M18.3419 22.7624C17.3472 22.3 16.2715 22.1518 15.2417 22.2744L20.621 24.7751C20.1092 23.9359 19.3366 23.2248 18.3419 22.7624Z" fill="#8CE16E"/>
</svg>
